<svg xmlns="http://www.w3.org/2000/svg" viewBox="0 0 392.62 164.31"><defs><style>.cls-1{fill:#ffd802;}.cls-2{fill:#262020;}.cls-3{fill:#e43222;}</style></defs><g id="Capa_2" data-name="Capa 2"><g id="Capa_1-2" data-name="Capa 1"><path class="cls-1" d="M392.62,82.14a82.14,82.14,0,1,0-82.15,82.17,82.14,82.14,0,0,0,82.15-82.17"/><path class="cls-2" d="M273.33,77.24a17.61,17.61,0,0,0-2.94-6.33,14.6,14.6,0,0,0-5.24-4.45,16,16,0,0,0-7.47-1.67,17.44,17.44,0,0,0-7,1.35,16.16,16.16,0,0,0-5.41,3.75,16.53,16.53,0,0,0-3.51,5.59,19.43,19.43,0,0,0-1.22,7,20.23,20.23,0,0,0,1.19,7.08,16.16,16.16,0,0,0,3.41,5.58,14.77,14.77,0,0,0,5.4,3.62,19,19,0,0,0,7.09,1.27,17.53,17.53,0,0,0,9.7-2.6,12.4,12.4,0,0,0,3.54-3.5,19.25,19.25,0,0,0,2.46-5.13l.22-.68s.13-.32-.25-.32h-8.59c-.45,0-.49.28-.49.28l-.08.27a3.24,3.24,0,0,1-.65,1.16A7.18,7.18,0,0,1,258,91.88a9.73,9.73,0,0,1-3-.44,5.53,5.53,0,0,1-2.13-1.27,5.72,5.72,0,0,1-1.35-2.2,12,12,0,0,1-.53-2.68h22.63c.35,0,.37-.42.37-.42l0-.28c0-.57,0-1.14,0-1.7a23,23,0,0,0-.69-5.65m-21-2.14a6.13,6.13,0,0,1,2-1.55,8.14,8.14,0,0,1,5.69-.22,3.77,3.77,0,0,1,1.67,1.07,8.65,8.65,0,0,1,1.83,3.8H251a8.18,8.18,0,0,1,.26-1.12,5.57,5.57,0,0,1,1-2"/><path class="cls-2" d="M306.07,98.87l-12.14-17.5,11-15.61s.13-.2-.25-.2H293.56a.51.51,0,0,0-.47.2l-5,7.48-5-7.44a.63.63,0,0,0-.52-.24H271.17c-.32,0-.16.23-.16.23l.77,1.11L282,81.56,270.11,98.91s-.23.32.16.32H281.4a.7.7,0,0,0,.64-.38l6-9,6,9a.83.83,0,0,0,.62.38h11.3c.42,0,.17-.36.17-.36"/><path class="cls-2" d="M320.13,65.55H307.31c-.46,0-.37.31-.37.31l1.83,33s0,.4.38.4h9.07c.38,0,.38-.41.38-.41l1.85-32.9s0-.37-.32-.37"/><path class="cls-2" d="M344.5,73.12a.37.37,0,0,0,.34-.4V65.9a.31.31,0,0,0-.34-.34h-6.08V56.35a.36.36,0,0,0-.37-.39h-9.76a.34.34,0,0,0-.34.37v9.23H323c-.45,0-.41.3-.41.3v6.88a.33.33,0,0,0,.35.38h5v18a8.94,8.94,0,0,0,.91,4.28,6.47,6.47,0,0,0,2.51,2.62,9.66,9.66,0,0,0,3.5,1.18,25.67,25.67,0,0,0,4,.3c.89,0,1.78,0,2.7-.06a23.58,23.58,0,0,0,2.57-.25l.38-.07s.32,0,.32-.43V90.87c0-.41-.34-.27-.34-.27l-.67.13c-.37.07-.78.14-1.19.18s-.88.06-1.35.06a6.41,6.41,0,0,1-1.65-.17,1.77,1.77,0,0,1-.73-.33,1.64,1.64,0,0,1-.33-.73,6.88,6.88,0,0,1-.16-1.64v-15Z"/><path class="cls-2" d="M379,75.17a15.41,15.41,0,0,0-9-9.2,19.43,19.43,0,0,0-7.15-1.27A19.17,19.17,0,0,0,355.7,66a16,16,0,0,0-5.49,3.59,16.33,16.33,0,0,0-3.53,5.61,22.15,22.15,0,0,0,0,14.5,16.31,16.31,0,0,0,3.53,5.57,15.41,15.41,0,0,0,5.51,3.58,19.44,19.44,0,0,0,7.11,1.23A19.75,19.75,0,0,0,370,98.82a15.45,15.45,0,0,0,5.52-3.58A15.73,15.73,0,0,0,379,89.67a22,22,0,0,0,0-14.5M366.15,91a6.55,6.55,0,0,1-3.32.75,6.64,6.64,0,0,1-3.3-.73,6.44,6.44,0,0,1-2.08-2,9.51,9.51,0,0,1-1.17-3,18.06,18.06,0,0,1-.35-3.56,18.88,18.88,0,0,1,.35-3.61,8.84,8.84,0,0,1,1.17-3,6.24,6.24,0,0,1,2.09-2.06,6.37,6.37,0,0,1,3.29-.78,6.53,6.53,0,0,1,3.31.78,6.19,6.19,0,0,1,2.13,2.06,8.43,8.43,0,0,1,1.15,3,18.12,18.12,0,0,1,.37,3.61,17.33,17.33,0,0,1-.37,3.56,9,9,0,0,1-1.15,3,5.88,5.88,0,0,1-2.12,2"/><path class="cls-3" d="M320,107.26a6.29,6.29,0,1,0-6.29,6.28,6.28,6.28,0,0,0,6.29-6.28"/><path class="cls-2" d="M259,56.2,254,62.38s-.29.35.1.35h5.81a1.07,1.07,0,0,0,.73-.25l8.27-6.28s.29-.25-.1-.25h-9.28a.67.67,0,0,0-.59.25"/><path class="cls-2" d="M388.43,68.85a4.07,4.07,0,0,1-.55,2.06,3.78,3.78,0,0,1-1.51,1.51,4.1,4.1,0,0,1-2.06.55,4.05,4.05,0,0,1-2-.55,3.78,3.78,0,0,1-1.51-1.51,4.11,4.11,0,0,1,0-4.11,4.13,4.13,0,0,1,3.55-2,3.91,3.91,0,0,1,2.06.55,3.82,3.82,0,0,1,1.51,1.5,4.09,4.09,0,0,1,.55,2m-.78,0a3.3,3.3,0,0,0-1-2.36,3.21,3.21,0,0,0-2.37-1,3.16,3.16,0,0,0-2.34,1,3.33,3.33,0,0,0,4.71,4.72,3.31,3.31,0,0,0,1-2.36m-5.2-2.21h2a1.85,1.85,0,0,1,1.22.35,1.23,1.23,0,0,1,.1,1.67,1.7,1.7,0,0,1-.92.47,2.12,2.12,0,0,1,.37.18,4.13,4.13,0,0,1,.36.46s.24.45.71,1.28H385a16,16,0,0,0-.84-1.5.69.69,0,0,0-.44-.25h-.13v1.74h-1.1Zm1.1,1.89H384a1.11,1.11,0,0,0,.68-.17.49.49,0,0,0,.18-.39.51.51,0,0,0-.18-.38.93.93,0,0,0-.63-.18h-.52Z"/><polygon class="cls-3" points="87.3 98.28 81.54 98.28 69.38 65.53 75.39 65.53 84.58 92.83 84.7 92.83 93.63 65.53 99.28 65.53 87.3 98.28"/><path class="cls-3" d="M108.32,59.65h-5.38V53.06h5.38Zm-5.38,5.88h5.38V98.29h-5.38Z"/><path class="cls-3" d="M144.17,98.15a7.25,7.25,0,0,1-3.86.88c-2.78,0-4.56-1.52-4.56-5.06A14.55,14.55,0,0,1,124.23,99c-6,0-10.84-2.64-10.84-9.18,0-7.4,5.5-9,11.09-10.07,6-1.13,11-.75,11-4.81,0-4.69-3.86-5.45-7.28-5.45-4.56,0-7.92,1.39-8.18,6.2h-5.38c.31-8.09,6.59-10.94,13.87-10.94,5.89,0,12.28,1.33,12.28,9V90.61c0,2.54,0,3.68,1.72,3.68a4.45,4.45,0,0,0,1.64-.32Zm-8.74-16.78c-2.09,1.51-6.14,1.59-9.75,2.21s-6.59,1.91-6.59,5.9c0,3.54,3,4.81,6.33,4.81,7.11,0,10-4.44,10-7.41Z"/><path class="cls-3" d="M153.35,102.46c0,5.82-3.11,8.36-7.85,8.36a16,16,0,0,1-2.79-.25v-4.63a12.73,12.73,0,0,0,2.22.13c2.35,0,3-1.15,3-4.5v-36h5.38Zm0-42.81H148V53.06h5.38Z"/><path class="cls-3" d="M188.12,87.9c-1.46,7.21-6.65,11.13-14,11.13-10.45,0-15.4-7.2-15.7-17.22,0-9.82,6.46-17,15.37-17,11.6,0,15.15,10.83,14.82,18.75h-24.5c-.19,5.7,3,10.77,10.19,10.77,4.43,0,7.54-2.16,8.49-6.39Zm-5.19-9.13a9.41,9.41,0,0,0-9.44-9.24c-5.63,0-9,4.24-9.37,9.24Z"/><path class="cls-3" d="M196,88c.19,4.82,4.36,6.34,8.79,6.34,3.36,0,7.92-.76,7.92-4.88s-5.31-4.87-10.69-6.08-10.72-3-10.72-9.25c0-6.59,6.54-9.3,12.24-9.3,7.22,0,13,2.27,13.43,10.25h-5.4c-.37-4.17-4-5.51-7.59-5.51-3.24,0-7,.9-7,4.18,0,3.87,5.7,4.5,10.7,5.7,5.38,1.2,10.72,3,10.72,9.31,0,7.8-7.31,10.33-13.94,10.33-7.35,0-13.57-3-13.87-11.09Z"/><path class="cls-3" d="M9.14,82.9a3.55,3.55,0,0,1,2-.67,3.42,3.42,0,0,1,3.34,2.56A40.42,40.42,0,0,0,26,82.13a2.22,2.22,0,0,1-.08-.55,1.57,1.57,0,0,1,.05-.3A41.23,41.23,0,0,1,5.41,63.53,29.09,29.09,0,0,0,.68,74.43,36.55,36.55,0,0,0,5,79.49,34,34,0,0,0,9.14,82.9M60,82.39a3.22,3.22,0,0,1-.76-.09C51.9,88.6,42.63,92.92,32.75,92.92a42.13,42.13,0,0,1-19.4-4.72,3.63,3.63,0,0,1-2.17.75,3.42,3.42,0,0,1-3.39-2.8A43.6,43.6,0,0,1,.36,85c2.22,14.58,15.09,25.79,30.69,25.79,16.73,0,30.32-12.87,31-29a3.29,3.29,0,0,1-2,.64M7.84,84.78A40.17,40.17,0,0,1,.19,77.53a25.15,25.15,0,0,0-.19,3c0,1,.06,1.92.15,2.88a41.4,41.4,0,0,0,7.66,1.4l0,0m19.05-5.56a3.53,3.53,0,0,1,2.47-1,3.46,3.46,0,0,1,2.49,1,38.51,38.51,0,0,0,7.06-5.45l.22-.21a3.32,3.32,0,0,1-.6-1.9c0-.06,0-.12,0-.18A39,39,0,0,1,20.31,57.31a3.62,3.62,0,0,1-1,.17,3.43,3.43,0,0,1-3.44-3.22,31.53,31.53,0,0,0-8.94,7.27A38.78,38.78,0,0,0,15.1,72a39.25,39.25,0,0,0,11.79,7.23M57,80.51a31.8,31.8,0,0,1-13.59,3.82l-1.68,0a41.34,41.34,0,0,1-9.37-1.06,3.5,3.5,0,0,1-3,1.63,3.45,3.45,0,0,1-2.8-1.42,43.74,43.74,0,0,1-12,2.65.8.8,0,0,1,0,.15A40.14,40.14,0,0,0,58,81.72a3.59,3.59,0,0,1-1-1.21m-12-7.14a3.41,3.41,0,0,1-3,1.69,3.79,3.79,0,0,1-1.33-.25,42.43,42.43,0,0,1-8,5.88,1.61,1.61,0,0,1,.08.38,39.48,39.48,0,0,0,8.94,1.06c.53,0,1.05,0,1.59,0a40.68,40.68,0,0,0,13.34-2.84c0-.07,0-.15,0-.23A3.39,3.39,0,0,1,60,75.68a3.46,3.46,0,0,1,1.67.44,21.63,21.63,0,0,0-.55-2.73,45.18,45.18,0,0,1-8.13.8,42.65,42.65,0,0,1-8.08-.82m.42-2.21a40,40,0,0,0,7.66.77,39.54,39.54,0,0,0,7.52-.73,30.43,30.43,0,0,0-9.37-13.64A38,38,0,0,1,44.89,70a2.82,2.82,0,0,1,.47,1.2M25.29,60.75a39.3,39.3,0,0,0,14.07,8.78A3.47,3.47,0,0,1,42,68.35a3.34,3.34,0,0,1,1.34.26,37.26,37.26,0,0,0,5.9-12.54,31.39,31.39,0,0,0-18.16-5.73,30.85,30.85,0,0,0-9.28,1.42,3.33,3.33,0,0,1,1,2.35,3.27,3.27,0,0,1-1.14,2.48,34.64,34.64,0,0,0,3.68,4.16"/></g></g></svg>